<?xml version="1.0" encoding="UTF-8"?>
<svg version="1.1" xmlns="http://www.w3.org/2000/svg" width="512" height="512">
<path d="M0 0 C4.35031348 3.51499983 8.48379313 7.20849332 12.54296875 11.0546875 C13.44015625 11.88742188 14.33734375 12.72015625 15.26171875 13.578125 C35.1372567 32.6162105 47.21019187 57.85031348 51.5 84.9140625 C51.66650055 85.93836868 51.8330011 86.96267487 52.00454712 88.01802063 C54.27851199 102.29221792 56.07232923 116.63990616 57.89208984 130.9777832 C61.00229613 155.37835839 64.6574315 179.83648325 72.85546875 203.1171875 C73.33479796 204.51394163 73.81396103 205.91075278 74.29296875 207.30761719 C78.07189324 218.20388797 82.3973711 228.73308343 87.54296875 239.0546875 C87.93887207 239.87195313 88.33477539 240.68921875 88.74267578 241.53125 C100.82977874 266.39940677 116.76190705 288.83385105 135.54296875 309.0546875 C143.97309613 318.32624002 143.97309613 318.32624002 145.54296875 322.0546875 C145.00821353 329.13290206 141.08528977 332.92960825 136.54296875 338.0546875 C135.94355469 338.73789062 135.34414063 339.42109375 134.7265625 340.125 C117.6722932 358.32113182 91.65761392 369.44740557 66.828125 370.2578125 C41.68374665 370.62507645 41.68374665 370.62507645 32.54296875 366.0546875 C32.90390625 367.20066406 33.26484375 368.34664063 33.63671875 369.52734375 C34.10597986 371.05713498 34.57470126 372.58709183 35.04296875 374.1171875 C35.28144531 374.86935547 35.51992188 375.62152344 35.765625 376.39648438 C39.02173155 387.14163598 39.02173155 387.14163598 36.50390625 392.1015625 C30.49607209 398.5533253 23.62967007 403.84967201 16.54296875 409.0546875 C15.96015137 409.48571777 15.37733398 409.91674805 14.77685547 410.36083984 C-18.8428992 434.8931531 -62.18117038 443.9106858 -103.20166016 438.28540039 C-106.66249246 437.69007186 -110.0547761 436.92101328 -113.45703125 436.0546875 C-114.68172119 435.75667236 -114.68172119 435.75667236 -115.93115234 435.45263672 C-145.29909373 428.17740908 -172.08641595 413.64029893 -193.45703125 392.0546875 C-196.08243132 386.80388736 -194.12048478 381.57718861 -192.45703125 376.3046875 C-192.08578125 375.19609375 -191.71453125 374.0875 -191.33203125 372.9453125 C-190.31217115 370.07949102 -190.31217115 370.07949102 -190.45703125 367.0546875 C-191.44058594 367.27125 -192.42414063 367.4878125 -193.4375 367.7109375 C-221.78367412 373.56190969 -249.6588743 369.33106409 -274.45703125 354.0546875 C-285.04218937 346.87452389 -296.95698733 337.90597261 -302.45703125 326.0546875 C-302.83203125 322.4921875 -302.83203125 322.4921875 -301.45703125 319.0546875 C-299.00814478 316.14663482 -296.24068594 313.63699284 -293.45703125 311.0546875 C-291.01839743 308.47570066 -288.74114453 305.77081472 -286.45703125 303.0546875 C-286.01262695 302.53471191 -285.56822266 302.01473633 -285.11035156 301.47900391 C-257.38239139 268.92365132 -237.30547579 230.38316007 -225.64453125 189.3046875 C-225.37882324 188.37317871 -225.11311523 187.44166992 -224.83935547 186.48193359 C-220.51848956 170.63513749 -218.02538969 154.59300074 -215.87109375 138.33984375 C-215.70173907 137.06477652 -215.70173907 137.06477652 -215.52896309 135.76395035 C-214.46678081 127.75133075 -213.41682251 119.73715596 -212.38964844 111.7199707 C-206.8302101 68.4399146 -196.95347317 31.30603008 -161.46923828 2.4375 C-115.01925782 -32.98792348 -47.1303911 -35.78289664 0 0 Z " fill="#4C5685" transform="translate(334.45703125,48.9453125)"/>
<path d="M0 0 C4.35031348 3.51499983 8.48379313 7.20849332 12.54296875 11.0546875 C13.44015625 11.88742188 14.33734375 12.72015625 15.26171875 13.578125 C35.1372567 32.6162105 47.21019187 57.85031348 51.5 84.9140625 C51.66650055 85.93836868 51.8330011 86.96267487 52.00454712 88.01802063 C54.27851199 102.29221792 56.07232923 116.63990616 57.89208984 130.9777832 C61.00229613 155.37835839 64.6574315 179.83648325 72.85546875 203.1171875 C73.33479796 204.51394163 73.81396103 205.91075278 74.29296875 207.30761719 C78.07189324 218.20388797 82.3973711 228.73308343 87.54296875 239.0546875 C87.93887207 239.87195313 88.33477539 240.68921875 88.74267578 241.53125 C100.82977874 266.39940677 116.76190705 288.83385105 135.54296875 309.0546875 C143.97309613 318.32624002 143.97309613 318.32624002 145.54296875 322.0546875 C145.00821353 329.13290206 141.08528977 332.92960825 136.54296875 338.0546875 C135.94355469 338.73789062 135.34414063 339.42109375 134.7265625 340.125 C117.6722932 358.32113182 91.65761392 369.44740557 66.828125 370.2578125 C41.68374665 370.62507645 41.68374665 370.62507645 32.54296875 366.0546875 C32.90390625 367.20066406 33.26484375 368.34664063 33.63671875 369.52734375 C34.10597986 371.05713498 34.57470126 372.58709183 35.04296875 374.1171875 C35.28144531 374.86935547 35.51992188 375.62152344 35.765625 376.39648438 C39.02173155 387.14163598 39.02173155 387.14163598 36.50390625 392.1015625 C30.49607209 398.5533253 23.62967007 403.84967201 16.54296875 409.0546875 C15.96015137 409.48571777 15.37733398 409.91674805 14.77685547 410.36083984 C-18.8428992 434.8931531 -62.18117038 443.9106858 -103.20166016 438.28540039 C-106.66249246 437.69007186 -110.0547761 436.92101328 -113.45703125 436.0546875 C-114.68172119 435.75667236 -114.68172119 435.75667236 -115.93115234 435.45263672 C-145.29909373 428.17740908 -172.08641595 413.64029893 -193.45703125 392.0546875 C-196.08243132 386.80388736 -194.12048478 381.57718861 -192.45703125 376.3046875 C-192.08578125 375.19609375 -191.71453125 374.0875 -191.33203125 372.9453125 C-190.31217115 370.07949102 -190.31217115 370.07949102 -190.45703125 367.0546875 C-191.44058594 367.27125 -192.42414063 367.4878125 -193.4375 367.7109375 C-221.78367412 373.56190969 -249.6588743 369.33106409 -274.45703125 354.0546875 C-285.04218937 346.87452389 -296.95698733 337.90597261 -302.45703125 326.0546875 C-302.83203125 322.4921875 -302.83203125 322.4921875 -301.45703125 319.0546875 C-299.00814478 316.14663482 -296.24068594 313.63699284 -293.45703125 311.0546875 C-291.01839743 308.47570066 -288.74114453 305.77081472 -286.45703125 303.0546875 C-286.01262695 302.53471191 -285.56822266 302.01473633 -285.11035156 301.47900391 C-257.38239139 268.92365132 -237.30547579 230.38316007 -225.64453125 189.3046875 C-225.37882324 188.37317871 -225.11311523 187.44166992 -224.83935547 186.48193359 C-220.51848956 170.63513749 -218.02538969 154.59300074 -215.87109375 138.33984375 C-215.70173907 137.06477652 -215.70173907 137.06477652 -215.52896309 135.76395035 C-214.46678081 127.75133075 -213.41682251 119.73715596 -212.38964844 111.7199707 C-206.8302101 68.4399146 -196.95347317 31.30603008 -161.46923828 2.4375 C-115.01925782 -32.98792348 -47.1303911 -35.78289664 0 0 Z M-162.45703125 27.0546875 C-163.23691406 27.81007812 -164.01679688 28.56546875 -164.8203125 29.34375 C-182.94583275 48.08096631 -190.43053001 72.1821921 -193.59741974 97.40736008 C-193.91929903 99.96322265 -194.2517196 102.51752902 -194.58685303 105.07168579 C-195.53746755 112.32714573 -196.47391269 119.58436056 -197.39404297 126.84375 C-200.24467485 149.27728967 -203.66326661 171.17165086 -209.45703125 193.0546875 C-209.70979828 194.01231491 -209.96256531 194.96994232 -210.22299194 195.95658875 C-220.24967219 233.52440394 -238.6811632 271.01555214 -263.45703125 301.0546875 C-264.21371094 302.00085938 -264.97039062 302.94703125 -265.75 303.921875 C-270.21225714 309.46705513 -274.86486252 314.73768507 -279.8046875 319.86328125 C-281.85839629 322.12957095 -281.85839629 322.12957095 -281.45703125 326.0546875 C-271.30612365 340.54792779 -250.58677118 349.15531758 -233.90551758 352.67089844 C-229.28805766 353.39466422 -224.6854703 353.43721807 -220.01953125 353.4296875 C-218.97345703 353.42807617 -217.92738281 353.42646484 -216.84960938 353.42480469 C-207.42918736 353.27823924 -198.40455397 352.05731622 -189.45703125 349.0546875 C-188.46768648 348.73304202 -188.46768648 348.73304202 -187.45835495 348.40489864 C-184.27363478 347.12457576 -182.05120701 346.04507842 -180.25040436 343.04344368 C-179.25931776 340.43333831 -178.48979972 337.82984109 -177.76660156 335.13305664 C-177.32094597 333.62267067 -177.32094597 333.62267067 -176.86628723 332.08177185 C-175.89330474 328.75884914 -174.96476203 325.42513468 -174.03515625 322.08984375 C-173.36421731 319.77494046 -172.6901602 317.46093885 -172.01312256 315.14781189 C-170.23859496 309.05973471 -168.49987262 302.96204471 -166.77044678 296.86102295 C-163.99705885 287.09709929 -161.17303036 277.34778119 -158.34267426 267.60024834 C-157.36002447 264.1952017 -156.39462327 260.78561723 -155.43145752 257.37501526 C-154.83136368 255.28512398 -154.23086071 253.19535012 -153.62988281 251.10571289 C-153.36695938 250.15749664 -153.10403595 249.2092804 -152.83314514 248.23233032 C-151.43597388 243.42751588 -150.1757035 239.61233443 -146.45703125 236.0546875 C-143.14156167 235.50210924 -141.19281849 235.76424517 -138.08203125 236.9921875 C-135.47376701 240.30267673 -136.09957529 244.03901295 -136.45703125 248.0546875 C-137.1702531 251.57004326 -138.19730461 254.95688167 -139.26757812 258.37841797 C-139.56684204 259.37024078 -139.86610596 260.3620636 -140.17443848 261.38394165 C-141.16315614 264.65028163 -142.16938732 267.91094232 -143.17578125 271.171875 C-143.87518076 273.4705366 -144.57344369 275.7695443 -145.27062988 278.06887817 C-147.11104753 284.12811546 -148.96620768 290.18273829 -150.82470703 296.2364502 C-152.68443868 302.30223082 -154.53145999 308.37187479 -156.37890625 314.44140625 C-158.79576688 322.38056706 -161.21731229 330.31823965 -163.64850616 338.25302315 C-164.92221688 342.41859231 -166.18625121 346.58707648 -167.45053101 350.75551605 C-168.54143692 354.33135786 -169.64911428 357.90182417 -170.75610352 361.47271729 C-171.50653327 363.92713056 -172.25646424 366.38169641 -173.00585938 368.83642578 C-173.54572102 370.55747434 -173.54572102 370.55747434 -174.09648895 372.31329155 C-174.58245922 373.9188853 -174.58245922 373.9188853 -175.07824707 375.55691528 C-175.36911446 376.49953279 -175.65998184 377.44215031 -175.95966339 378.41333199 C-176.51189386 381.3460446 -176.33947468 383.2158976 -175.45703125 386.0546875 C-153.7068193 409.19860235 -116.15704387 422.18113908 -85.13671875 423.29296875 C-49.55882837 423.9795166 -16.68443815 413.74864088 11.54296875 392.0546875 C12.42726563 391.41402344 13.3115625 390.77335937 14.22265625 390.11328125 C14.96773438 389.53707031 15.7128125 388.96085937 16.48046875 388.3671875 C17.10824219 387.88894531 17.73601562 387.41070312 18.3828125 386.91796875 C20.19018396 384.01522064 19.21015035 381.24917823 18.54296875 378.0546875 C17.65512648 374.60886073 16.63493668 371.20783804 15.60302734 367.80273438 C15.30201111 366.79502487 15.00099487 365.78731537 14.69085693 364.74906921 C13.69582433 361.42240414 12.69366777 358.09793109 11.69140625 354.7734375 C10.99173254 352.4397024 10.29249042 350.10583788 9.59365845 347.77185059 C7.74968974 341.61773081 5.89961755 335.46546198 4.04833984 329.3135376 C2.1898211 323.13336067 0.33746342 316.95133809 -1.515625 310.76953125 C-3.93639853 302.69782515 -6.35727207 294.6261472 -8.78488731 286.55649567 C-9.41563453 284.4583439 -10.0449292 282.35975485 -10.67267799 280.26070404 C-12.23451676 275.05114414 -13.83102364 269.85620482 -15.48944092 264.67651367 C-15.81609426 263.64323692 -16.14274761 262.60996017 -16.47929955 261.54537201 C-17.09467744 259.60343282 -17.72000217 257.66460336 -18.35756874 255.72983551 C-20.1770085 249.95229148 -20.89383315 245.11920429 -20.45703125 239.0546875 C-18.89453125 236.9296875 -18.89453125 236.9296875 -16.45703125 236.0546875 C-12.89453125 236.1171875 -12.89453125 236.1171875 -9.45703125 237.0546875 C-7.09926194 239.65317692 -5.92557888 242.0850761 -4.9395752 245.42579651 C-4.67894791 246.29361755 -4.41832062 247.1614386 -4.14979553 248.05555725 C-3.8754216 248.99958908 -3.60104767 249.94362091 -3.31835938 250.91625977 C-3.02037949 251.91664276 -2.7223996 252.91702576 -2.41539001 253.94772339 C-1.77010662 256.11776685 -1.12861145 258.28893957 -0.49046326 260.461092 C0.51920063 263.89655142 1.53934218 267.32873925 2.56237793 270.76023865 C5.10063983 279.28162441 7.62204348 287.80797487 10.14141846 296.33496094 C12.27145551 303.5429294 14.40904886 310.74856397 16.55751038 317.95106316 C17.56387488 321.33629877 18.55883945 324.72475484 19.55358887 328.11341858 C20.16990549 330.18329023 20.78677795 332.25299649 21.40429688 334.32250977 C21.67867081 335.26856583 21.95304474 336.21462189 22.23573303 337.18934631 C22.49636032 338.05434753 22.75698761 338.91934875 23.0255127 339.81056213 C23.24745552 340.5621589 23.46939835 341.31375566 23.69806671 342.08812809 C25.04956895 345.2338294 26.79608583 346.70017044 29.85546875 348.15234375 C30.74234375 348.47074219 31.62921875 348.78914063 32.54296875 349.1171875 C33.40921875 349.43816406 34.27546875 349.75914062 35.16796875 350.08984375 C43.68918844 352.52588688 52.01249972 353.41968138 60.85546875 353.3671875 C61.8609375 353.36154785 62.86640625 353.3559082 63.90234375 353.35009766 C88.51938061 352.95011041 108.42771591 342.38936666 125.54296875 325.0546875 C123.93892637 321.18128971 121.41923533 318.62827908 118.54296875 315.6171875 C112.7542753 309.42920824 107.55885854 302.87800483 102.54296875 296.0546875 C102.07777832 295.42997559 101.61258789 294.80526367 101.13330078 294.16162109 C89.51596826 278.49976451 79.82352001 261.61909679 71.46972656 244.00732422 C70.85094746 242.70358469 70.22525803 241.40310297 69.59277344 240.10595703 C52.31872569 204.53401981 45.71095173 166.34858424 40.625 127.50390625 C40.19080897 124.21355733 39.75661411 120.92320895 39.32209682 117.6329031 C38.72367688 113.08844697 38.14648825 108.54155461 37.57299805 103.99389648 C35.46195306 87.62668411 33.24897462 71.10102992 25.73046875 56.1796875 C25.38991455 55.48464111 25.04936035 54.78959473 24.69848633 54.07348633 C18.92061372 42.55626913 11.41063935 33.26342235 2.54296875 24.0546875 C1.8984375 23.33539063 1.25390625 22.61609375 0.58984375 21.875 C-18.10143486 1.63965925 -47.96445024 -7.95523295 -74.76953125 -9.19921875 C-108.61121482 -10.05597023 -138.6216684 3.58912577 -162.45703125 27.0546875 Z " fill="black" transform="translate(334.45703125,48.9453125)"/>
<path d="M0 0 C1.07953445 -0.00788544 1.07953445 -0.00788544 2.18087769 -0.01593018 C4.53951279 -0.0290406 6.89746257 -0.02042353 9.25610352 -0.01025391 C10.90845366 -0.01227745 12.56080292 -0.01519122 14.21315002 -0.01895142 C17.66871684 -0.02336282 21.12405026 -0.01698287 24.57958984 -0.00292969 C28.99217823 0.01414815 33.40421853 0.00432257 37.81678677 -0.01364708 C41.22703623 -0.02452853 44.63715747 -0.02101843 48.04741096 -0.0132637 C49.67358529 -0.01127303 51.29977154 -0.01368085 52.92593193 -0.02070236 C70.4522137 -0.07977375 70.4522137 -0.07977375 77.61938477 4.89599609 C83.12420053 10.53706967 86.55817631 16.31294994 86.94750977 24.32568359 C86.62633064 30.7894134 84.93070725 36.63529458 80.54125977 41.50146484 C77.90949314 43.87300082 75.56480667 45.96796999 72.22485352 47.22412109 C71.63833008 47.60826172 71.05180664 47.99240234 70.44750977 48.38818359 C69.92788215 51.00492741 69.92788215 51.00492741 70.01000977 54.01318359 C69.62608051 61.45962551 67.29108246 65.68678954 61.94750977 70.76318359 C56.28852782 74.44152186 51.1412013 75.37795201 44.44750977 74.38818359 C38.82928492 72.11553361 34.8157934 68.34154188 31.44750977 63.38818359 C29.60440786 58.56101195 29.38034609 54.51094025 29.44750977 49.38818359 C28.40933105 49.41436768 27.37115234 49.44055176 26.30151367 49.4675293 C22.40655534 49.55883118 18.51168918 49.61571916 14.6159668 49.6628418 C12.93806999 49.68780571 11.2602799 49.72178978 9.58276367 49.76538086 C-1.03764085 50.03421183 -10.10126099 50.24056103 -18.43823242 42.67749023 C-23.66193473 37.28530791 -25.6729062 31.29363001 -25.98999023 23.88818359 C-25.71773101 15.67503022 -22.25089388 10.66428028 -16.62670898 4.93115234 C-11.32904722 0.9903305 -6.51554236 0.01203005 0 0 Z " fill="#010101" transform="translate(225.552490234375,195.61181640625)"/>
<path d="M0 0 C0.66700928 -0.00350464 1.33401855 -0.00700928 2.02124023 -0.01062012 C4.22593599 -0.01942174 6.43031074 -0.01359332 8.63500977 -0.00683594 C10.16813722 -0.0081832 11.70126426 -0.01012425 13.23439026 -0.01263428 C16.44813096 -0.01558354 19.6617605 -0.01129489 22.87548828 -0.00195312 C26.99254189 0.00943174 31.10933445 0.00288692 35.22637844 -0.00909805 C38.39282696 -0.01633022 41.55921375 -0.01402233 44.72566414 -0.00884247 C46.24350071 -0.00750923 47.7613429 -0.0091423 49.2791729 -0.01380157 C51.4024117 -0.01888809 53.52522996 -0.01112665 55.6484375 0 C57.46020729 0.00238678 57.46020729 0.00238678 59.30857849 0.00482178 C62.27437928 0.24934575 63.92647569 0.64366314 66.38891602 2.25878906 C68.48571004 4.9546671 68.38402423 6.35173306 68.20141602 9.82128906 C67.36839394 13.34561323 67.11521772 14.12961981 64.38891602 16.25878906 C61.84129698 17.15066218 59.28580999 17.76880641 56.66625977 18.41503906 C54.04994872 19.13077259 54.04994872 19.13077259 52.38891602 22.25878906 C52.04130481 24.26833771 52.04130481 24.26833771 52.01000977 26.45410156 C51.97584961 27.25203125 51.94168945 28.04996094 51.90649414 28.87207031 C51.88006836 29.7009375 51.85364258 30.52980469 51.82641602 31.38378906 C51.50941961 40.13828547 51.50941961 40.13828547 50.38891602 41.25878906 C47.88891602 41.38378906 47.88891602 41.38378906 45.38891602 41.25878906 C43.11706245 38.9869355 43.98180207 32.83489577 43.87133789 29.60449219 C43.69915798 24.12998724 43.69915798 24.12998724 41.38891602 19.25878906 C39.06327664 18.09596938 37.69982546 18.12849612 35.11035156 18.11694336 C34.22570724 18.10990891 33.34106293 18.10287445 32.42961121 18.09562683 C31.47129898 18.09146255 30.51298676 18.08729828 29.52563477 18.08300781 C27.50413999 18.05980814 25.48265558 18.03569075 23.46118164 18.01074219 C20.26815882 17.97562704 17.07551662 17.94628528 13.88232422 17.93286133 C10.80462324 17.91738353 7.72804032 17.87717193 4.65063477 17.83300781 C3.22227547 17.83587044 3.22227547 17.83587044 1.76506042 17.83879089 C-2.47842414 17.76052339 -4.97903076 17.63135358 -8.69384766 15.44165039 C-11.33646289 12.43291197 -11.54044882 10.21435845 -11.61108398 6.25878906 C-9.68851498 0.33086796 -5.66070108 0.00746218 0 0 Z " fill="#7C4C85" transform="translate(227.611083984375,211.7412109375)"/>
<path d="M0 0 C0.64764816 -0.00700928 1.29529633 -0.01401855 1.96257019 -0.02124023 C4.09723149 -0.03880413 6.23056029 -0.02720508 8.36523438 -0.01367188 C9.85209405 -0.0163673 11.33895201 -0.02025014 12.82580566 -0.02526855 C15.93954273 -0.03116136 19.05282032 -0.02260834 22.16650391 -0.00390625 C26.15489526 0.01888398 30.14220997 0.00575961 34.13056183 -0.01819611 C37.2001352 -0.03266045 40.26945393 -0.02804535 43.33903503 -0.01768494 C44.80942411 -0.01501937 46.27983642 -0.01828149 47.75019836 -0.02760315 C49.80674339 -0.03778022 51.86155281 -0.0222559 53.91796875 0 C55.08726929 0.00318237 56.25656982 0.00636475 57.46130371 0.00964355 C61.09541296 0.62541619 62.28618247 1.58243559 64.45898438 4.51757812 C64.9281712 8.27107274 64.99034819 10.55606266 63.14648438 13.89257812 C59.95172377 16.96901426 56.53481466 16.66187646 52.32275391 16.71044922 C51.05779083 16.72651215 49.79282776 16.74257507 48.48953247 16.75912476 C47.10696078 16.77061083 45.72438157 16.78121961 44.34179688 16.79101562 C43.64470486 16.7963393 42.94761284 16.80166298 42.22939682 16.80714798 C38.54080049 16.83384569 34.85223763 16.85323273 31.16357422 16.86767578 C28.11379051 16.88102347 25.06467458 16.90889416 22.01513672 16.94970703 C18.32872887 16.99903851 14.64292729 17.0237966 10.95620346 17.03090286 C9.55356091 17.03761141 8.1509317 17.05282358 6.74847794 17.07679367 C4.78389179 17.10846048 2.81884031 17.10547916 0.85400391 17.10107422 C-0.26279755 17.10916107 -1.379599 17.11724792 -2.53024292 17.12557983 C-6.53531806 16.31678662 -8.0308998 14.675033 -10.54101562 11.51757812 C-11.10351562 7.95507812 -11.10351562 7.95507812 -10.54101562 4.51757812 C-7.43726358 0.35245144 -5.06729902 0.01379118 0 0 Z " fill="#030303" transform="translate(290.541015625,141.482421875)"/>
<path d="M0 0 C1.95739357 -0.01891296 1.95739357 -0.01891296 3.95433044 -0.03820801 C5.3758905 -0.03104745 6.79744563 -0.02284328 8.21899414 -0.01367188 C9.68103798 -0.01636763 11.14308008 -0.02025075 12.6051178 -0.02526855 C15.6675831 -0.03116167 18.72958126 -0.02260864 21.79199219 -0.00390625 C25.71078989 0.01886386 29.62849059 0.00577266 33.54724789 -0.01819611 C36.56625068 -0.0326769 39.58499507 -0.02803749 42.60400581 -0.01768494 C44.04844862 -0.01502286 45.49291514 -0.01826916 46.93733025 -0.02760315 C48.95951746 -0.03780198 50.98178725 -0.01949128 53.00390625 0 C54.15322128 0.00318237 55.30253632 0.00636475 56.48667908 0.00964355 C60.24899143 0.63010664 61.92641315 1.80103236 64.56665039 4.51757812 C65.12915039 8.01757812 65.12915039 8.01757812 64.56665039 11.51757812 C62.69956534 13.88255252 61.24603608 15.17788528 58.56665039 16.51757812 C56.56146607 16.63462429 54.55240981 16.68733398 52.54394531 16.71044922 C50.64638741 16.73454361 50.64638741 16.73454361 48.710495 16.75912476 C47.32270987 16.77061169 45.93491724 16.78122032 44.54711914 16.79101562 C43.84911005 16.7963393 43.15110096 16.80166298 42.43194008 16.80714798 C38.73686445 16.83387377 35.04182254 16.85324981 31.34667969 16.86767578 C28.29006006 16.88101388 25.23410824 16.9088628 22.17773438 16.94970703 C18.48599557 16.99904197 14.79486238 17.02379759 11.102808 17.03090286 C9.69737451 17.03761275 8.29195439 17.05282843 6.88670921 17.07679367 C4.91722381 17.10846322 2.94727415 17.10547896 0.97753906 17.10107422 C-0.70218742 17.1132045 -0.70218742 17.1132045 -2.41584778 17.12557983 C-6.42595802 16.31757572 -7.9209288 14.67940093 -10.43334961 11.51757812 C-10.99584961 7.95507812 -10.99584961 7.95507812 -10.43334961 4.51757812 C-7.3480278 0.3942448 -5.03004964 0.0139375 0 0 Z " fill="#030303" transform="translate(167.433349609375,141.482421875)"/>
</svg>
